<svg width="121" height="143" viewBox="0 0 121 143" fill="none" xmlns="http://www.w3.org/2000/svg">
<g filter="url(#filter0_d_17_1870)">
<rect x="15.4351" y="0.50293" width="88.6011" height="88.6011" rx="44.3006" fill="white"/>
</g>
<g filter="url(#filter1_d_17_1870)">
<path d="M12.6922 122.087C12.6922 121.812 12.6357 121.577 12.5227 121.38C12.4097 121.184 12.2157 121.029 11.9406 120.916C11.749 120.837 11.5255 120.791 11.2701 120.776C11.0146 120.756 10.7174 120.746 10.3785 120.746H9.35423V123.701H10.2237C10.6757 123.701 11.0539 123.679 11.3585 123.635C11.663 123.591 11.9185 123.49 12.1248 123.333C12.3213 123.18 12.4638 123.013 12.5522 122.832C12.6455 122.645 12.6922 122.397 12.6922 122.087ZM17.106 129.699H13.6501L10.6585 125.676H9.35423V129.699H6.53943V118.727H11.2848C11.9332 118.727 12.4908 118.764 12.9575 118.838C13.4241 118.912 13.8613 119.071 14.2691 119.317C14.6817 119.563 15.0084 119.882 15.2491 120.275C15.4947 120.663 15.6175 121.152 15.6175 121.741C15.6175 122.552 15.4284 123.212 15.0501 123.723C14.6768 124.234 14.1413 124.659 13.4438 124.998L17.106 129.699ZM26.9471 122.191C26.9471 122.682 26.8612 123.163 26.6892 123.635C26.5173 124.102 26.2717 124.495 25.9524 124.814C25.5152 125.246 25.0264 125.573 24.486 125.794C23.9506 126.015 23.2825 126.125 22.4818 126.125H20.7207V129.699H17.8912V118.727H22.5481C23.2457 118.727 23.8327 118.789 24.3092 118.912C24.7906 119.03 25.2155 119.209 25.584 119.45C26.0261 119.739 26.3626 120.11 26.5935 120.562C26.8292 121.014 26.9471 121.557 26.9471 122.191ZM24.0218 122.257C24.0218 121.947 23.9383 121.682 23.7713 121.461C23.6043 121.235 23.4102 121.078 23.1892 120.99C22.8944 120.872 22.6071 120.808 22.327 120.798C22.047 120.783 21.6737 120.776 21.207 120.776H20.7207V124.062H21.5312C22.0127 124.062 22.4081 124.033 22.7176 123.974C23.032 123.915 23.2948 123.797 23.506 123.62C23.6878 123.463 23.818 123.276 23.8966 123.06C23.9801 122.839 24.0218 122.571 24.0218 122.257ZM38.2105 129.073C37.7192 129.264 37.0683 129.456 36.2578 129.648C35.4472 129.834 34.6391 129.928 33.8335 129.928C31.9668 129.928 30.5054 129.422 29.4492 128.41C28.3931 127.393 27.865 125.99 27.865 124.202C27.865 122.498 28.398 121.125 29.464 120.083C30.5299 119.037 32.0159 118.514 33.9219 118.514C34.6441 118.514 35.3318 118.58 35.9851 118.713C36.6385 118.84 37.3655 119.098 38.1662 119.486V122.058H37.8494C37.7118 121.955 37.5104 121.81 37.2452 121.623C36.9799 121.432 36.7245 121.27 36.4788 121.137C36.1939 120.98 35.8599 120.845 35.4767 120.732C35.0985 120.619 34.6956 120.562 34.2683 120.562C33.7672 120.562 33.3128 120.636 32.9051 120.783C32.4973 120.931 32.1314 121.157 31.8072 121.461C31.4977 121.756 31.2521 122.132 31.0703 122.589C30.8935 123.04 30.805 123.564 30.805 124.158C30.805 125.371 31.1268 126.3 31.7703 126.943C32.4138 127.587 33.3644 127.909 34.622 127.909C34.73 127.909 34.8479 127.906 34.9756 127.901C35.1083 127.896 35.2286 127.889 35.3367 127.879V125.728H33.1482V123.657H38.2105V129.073ZM49.9642 129.913C49.1488 129.913 48.3947 129.793 47.7021 129.552C47.0143 129.311 46.4224 128.953 45.9262 128.476C45.4301 128 45.0445 127.405 44.7694 126.693C44.4992 125.981 44.3641 125.158 44.3641 124.224C44.3641 123.355 44.4943 122.566 44.7546 121.859C45.015 121.152 45.3932 120.545 45.8894 120.039C46.3659 119.553 46.9554 119.177 47.6578 118.912C48.3652 118.646 49.1365 118.514 49.9716 118.514C50.4333 118.514 50.8484 118.541 51.2169 118.595C51.5902 118.644 51.9341 118.71 52.2485 118.794C52.5776 118.887 52.8748 118.993 53.1401 119.111C53.4102 119.224 53.646 119.329 53.8474 119.427V122.087H53.5232C53.3857 121.97 53.2113 121.83 53.0001 121.667C52.7937 121.505 52.5579 121.346 52.2927 121.189C52.0225 121.031 51.7302 120.899 51.4158 120.791C51.1014 120.683 50.7649 120.629 50.4063 120.629C50.0084 120.629 49.6302 120.692 49.2716 120.82C48.913 120.943 48.5814 121.149 48.2768 121.439C47.987 121.719 47.7512 122.09 47.5694 122.552C47.3926 123.013 47.3042 123.573 47.3042 124.232C47.3042 124.919 47.3999 125.494 47.5915 125.956C47.788 126.418 48.0336 126.781 48.3284 127.047C48.628 127.317 48.9621 127.511 49.3305 127.629C49.6989 127.742 50.0625 127.798 50.4211 127.798C50.7649 127.798 51.1039 127.747 51.4379 127.643C51.7769 127.54 52.0888 127.4 52.3737 127.223C52.6144 127.081 52.838 126.929 53.0443 126.767C53.2506 126.604 53.4201 126.464 53.5527 126.347H53.8474V128.97C53.5724 129.093 53.3095 129.208 53.059 129.316C52.8085 129.424 52.5457 129.517 52.2706 129.596C51.912 129.699 51.5755 129.778 51.2611 129.832C50.9467 129.886 50.5144 129.913 49.9642 129.913ZM61.3233 123.952H61.0875C60.9745 123.912 60.7928 123.883 60.5422 123.863C60.2917 123.844 60.0829 123.834 59.9159 123.834C59.5377 123.834 59.2036 123.858 58.9138 123.908C58.624 123.957 58.312 124.04 57.978 124.158V129.699H55.3253V121.424H57.978V122.64C58.5625 122.139 59.071 121.807 59.5033 121.645C59.9356 121.478 60.3335 121.395 60.697 121.395C60.7903 121.395 60.8959 121.397 61.0138 121.402C61.1317 121.407 61.2349 121.414 61.3233 121.424V123.952ZM70.5234 126.052H64.4517C64.491 126.7 64.7366 127.196 65.1886 127.54C65.6454 127.884 66.316 128.056 67.2002 128.056C67.7602 128.056 68.303 127.955 68.8286 127.754C69.3543 127.553 69.7694 127.336 70.0739 127.105H70.3687V129.235C69.7694 129.476 69.2044 129.65 68.6739 129.758C68.1434 129.866 67.5563 129.92 66.9128 129.92C65.2524 129.92 63.9801 129.547 63.0959 128.8C62.2117 128.054 61.7696 126.99 61.7696 125.61C61.7696 124.244 62.1871 123.163 63.0222 122.367C63.8622 121.567 65.0117 121.166 66.4707 121.166C67.8167 121.166 68.8286 121.508 69.5066 122.191C70.1845 122.869 70.5234 123.846 70.5234 125.123V126.052ZM67.8855 124.497C67.8707 123.942 67.7332 123.524 67.4728 123.244C67.2125 122.964 66.8072 122.824 66.257 122.824C65.7461 122.824 65.3261 122.957 64.997 123.222C64.6679 123.488 64.4836 123.912 64.4443 124.497H67.8855ZM76.9529 127.54V125.816C76.5943 125.845 76.2063 125.887 75.7887 125.941C75.3712 125.99 75.0543 126.049 74.8382 126.118C74.5729 126.202 74.369 126.324 74.2266 126.487C74.089 126.644 74.0202 126.852 74.0202 127.113C74.0202 127.285 74.035 127.425 74.0645 127.533C74.0939 127.641 74.1676 127.744 74.2855 127.842C74.3985 127.941 74.5336 128.014 74.6908 128.063C74.848 128.108 75.0936 128.13 75.4276 128.13C75.6929 128.13 75.9606 128.076 76.2308 127.968C76.5059 127.86 76.7466 127.717 76.9529 127.54ZM76.9529 128.822C76.8105 128.93 76.6336 129.061 76.4224 129.213C76.2112 129.365 76.0122 129.486 75.8255 129.574C75.5652 129.692 75.295 129.778 75.015 129.832C74.735 129.891 74.428 129.92 74.0939 129.92C73.308 129.92 72.6497 129.677 72.1192 129.191C71.5886 128.704 71.3233 128.083 71.3233 127.327C71.3233 126.722 71.4584 126.229 71.7286 125.845C71.9988 125.462 72.382 125.16 72.8781 124.939C73.3694 124.718 73.9785 124.561 74.7055 124.468C75.4326 124.374 76.1866 124.305 76.9677 124.261V124.217C76.9677 123.76 76.781 123.446 76.4077 123.274C76.0343 123.097 75.4841 123.009 74.7571 123.009C74.3199 123.009 73.8532 123.087 73.3571 123.244C72.8609 123.397 72.5048 123.515 72.2886 123.598H72.0455V121.601C72.3255 121.527 72.7799 121.442 73.4087 121.343C74.0424 121.24 74.6761 121.189 75.3097 121.189C76.8178 121.189 77.9059 121.422 78.574 121.889C79.247 122.35 79.5835 123.077 79.5835 124.07V129.699H76.9529V128.822ZM86.8604 129.626C86.5755 129.699 86.2734 129.756 85.9541 129.795C85.6348 129.839 85.2443 129.861 84.7825 129.861C83.7509 129.861 82.9821 129.653 82.4761 129.235C81.9751 128.817 81.7245 128.103 81.7245 127.091V123.222H80.634V121.424H81.7245V119.059H84.3772V121.424H86.8604V123.222H84.3772V126.155C84.3772 126.445 84.3797 126.698 84.3846 126.914C84.3895 127.13 84.4288 127.324 84.5025 127.496C84.5713 127.668 84.6916 127.805 84.8635 127.909C85.0404 128.007 85.2958 128.056 85.6299 128.056C85.7674 128.056 85.9467 128.027 86.1678 127.968C86.3938 127.909 86.551 127.855 86.6394 127.805H86.8604V129.626ZM96.2448 129.699H93.5921V128.786C93.1008 129.159 92.6513 129.444 92.2436 129.64C91.8359 129.832 91.3496 129.928 90.7846 129.928C89.8709 129.928 89.166 129.665 88.6699 129.139C88.1786 128.614 87.933 127.837 87.933 126.811V121.424H90.6004V125.529C90.6004 125.946 90.6127 126.295 90.6373 126.575C90.6667 126.85 90.7306 127.078 90.8288 127.26C90.9222 127.442 91.0622 127.575 91.2489 127.658C91.4404 127.742 91.7057 127.783 92.0447 127.783C92.2706 127.783 92.5212 127.742 92.7963 127.658C93.0714 127.575 93.3366 127.452 93.5921 127.29V121.424H96.2448V129.699ZM104.303 123.952H104.067C103.954 123.912 103.772 123.883 103.522 123.863C103.271 123.844 103.062 123.834 102.895 123.834C102.517 123.834 102.183 123.858 101.893 123.908C101.603 123.957 101.291 124.04 100.957 124.158V129.699H98.3047V121.424H100.957V122.64C101.542 122.139 102.05 121.807 102.483 121.645C102.915 121.478 103.313 121.395 103.676 121.395C103.77 121.395 103.875 121.397 103.993 121.402C104.111 121.407 104.214 121.414 104.303 121.424V123.952ZM113.503 126.052H107.431C107.47 126.7 107.716 127.196 108.168 127.54C108.625 127.884 109.295 128.056 110.18 128.056C110.74 128.056 111.282 127.955 111.808 127.754C112.334 127.553 112.749 127.336 113.053 127.105H113.348V129.235C112.749 129.476 112.184 129.65 111.653 129.758C111.123 129.866 110.536 129.92 109.892 129.92C108.232 129.92 106.96 129.547 106.075 128.8C105.191 128.054 104.749 126.99 104.749 125.61C104.749 124.244 105.167 123.163 106.002 122.367C106.842 121.567 107.991 121.166 109.45 121.166C110.796 121.166 111.808 121.508 112.486 122.191C113.164 122.869 113.503 123.846 113.503 125.123V126.052ZM110.865 124.497C110.85 123.942 110.713 123.524 110.452 123.244C110.192 122.964 109.787 122.824 109.236 122.824C108.726 122.824 108.306 122.957 107.976 123.222C107.647 123.488 107.463 123.912 107.424 124.497H110.865Z" fill="white"/>
</g>
<path d="M60.4159 51.0928L60.4277 47.4604L58.66 47.4547L58.6481 51.0871L60.4159 51.0928Z" fill="#F9E93C"/>
<path d="M58.6242 58.4243L58.63 56.6566L58.6307 56.4387L55.0226 56.4269L55.0278 54.8287L51.4439 54.817L51.4379 56.6331L49.7186 56.6275L49.7007 62.1245L51.42 62.1301L51.4146 63.801L54.9985 63.8126L55.0039 62.1418L53.2362 62.136L53.2424 60.223L50.6998 60.2147L50.7057 58.3985L58.6242 58.4243Z" fill="#F9E93C"/>
<path d="M60.4159 51.0928L60.4277 47.4604L58.66 47.4547L58.6481 51.0871L60.4159 51.0928Z" stroke="#F9E93C" stroke-width="0.185767"/>
<path d="M58.6242 58.4243L58.63 56.6566L58.6307 56.4387L55.0226 56.4269L55.0278 54.8287L51.4439 54.817L51.4379 56.6331L49.7186 56.6275L49.7007 62.1245L51.42 62.1301L51.4146 63.801L54.9985 63.8126L55.0039 62.1418L53.2362 62.136L53.2424 60.223L50.6998 60.2147L50.7057 58.3985L58.6242 58.4243Z" stroke="#F9E93C" stroke-width="0.185767"/>
<path d="M56.8051 60.2995L60.3441 60.3111L60.3385 62.0394L62.204 62.0455L62.1861 67.5322L60.3206 67.5261L60.3178 68.3765L60.3151 69.227L53.2646 69.204L53.2702 67.5031L51.5226 67.4974L51.5483 65.6495L56.7876 65.6666L56.7934 63.8933L56.8051 60.2995Z" fill="#EF2C25"/>
<path d="M56.8291 52.9458L56.835 51.1396L51.576 51.1224L51.5701 52.9286L56.8291 52.9458Z" fill="#EF2C25"/>
<path d="M56.8051 60.2995L60.3441 60.3111L60.3385 62.0394L62.204 62.0455L62.1861 67.5322L60.3206 67.5261L60.3178 68.3765L60.3151 69.227L53.2646 69.204L53.2702 67.5031M56.8051 60.2995L56.7934 63.8933L60.3324 63.9049L60.3261 65.8527L58.5703 65.8469L58.5649 67.5204L53.2702 67.5031M56.8051 60.2995L56.7876 65.6666L51.5483 65.6495L51.5226 67.4974L53.2702 67.5031M56.835 51.1396L56.8291 52.9458L51.5701 52.9286L51.576 51.1224L56.835 51.1396Z" stroke="#EF2C25" stroke-width="0.185767"/>
<path d="M67.9407 62.0586L64.0502 62.0459L64.0459 63.3712L67.9363 63.3839L67.9407 62.0586Z" fill="#A8181D" stroke="#A8181D" stroke-width="0.185767"/>
<path d="M69.4596 68.1762L72.7088 68.1868L72.7149 66.3057L70.1498 66.2974L68.7817 66.2929L68.787 64.6683L67.4189 64.6639L67.4136 66.2884L65.9173 66.2836L65.9015 71.1146L67.3979 71.1194L67.4075 68.1695L69.4596 68.1762Z" fill="#F56921" stroke="#F56921" stroke-width="0.185767"/>
<path d="M62.7256 60.1972L66.6264 60.2099L66.6304 58.9955L65.3056 58.9912L65.3176 55.3111L64.0296 55.3069L64.0341 53.9085L59.6548 53.8942L59.6503 55.2926L62.7415 55.3027L62.7256 60.1972Z" fill="#F86B22" stroke="#F86B22" stroke-width="0.185767"/>
<path d="M59.1017 18.0835H57.1131V20.8211H56.9872V22.8895H56.6937V25.0527H55.544V29.1131H54.3455V31.6374H53.416V33.6138H52.3154V35.6195H51.3369V37.2828H50.0161V38.9885H48.7197V40.9029H47.4967V42.4928H46.1758V44.6798H45.2464V46.6999H44.1946V48.143H43.2162V49.8797H42.5802V54.6739H41.9688V58.3085V60.4397H42.727V62.1748H43.5831V63.2838H44.4881V64.6291H45.2464V65.8379H46.1758V66.9039H47.0808V67.7845H47.8146V68.5183H48.9643V69.9614H49.6247V70.5729H50.3095V69.2032H49.6247V67.7845H48.9643V66.1701H48.3283V64.6291V62.1748H48.9643V59.6617H49.6247V57.976H50.3095V55.9214H50.97V54.2091H51.6304V53.4753H52.3154V50.9315H53.5628V49.6577H54.9815V48.3528H55.8864V46.5647H56.9383V44.6798H57.8677V43.3489H58.5037V41.3546H59.1397V40.7806H59.7756V39.7777H60.4361V38.9885H61.6463V41.3546H62.2991V44.2919V50.6726H61.6463V55.7147H62.289V57.0036V57.6664H62.9325H64.3865V58.3085H65.2923V58.9124H66.2934V59.5555H67.4613H69.2013V58.9124H70.4646V59.5555H71.0876V60.4397V61.4231H71.7531V62.1748V63.0457V63.9146V64.8074H71.462V65.8379H71.1714V66.6523H70.5398V67.2493V68.0709H69.9638V68.8925H69.3355V69.5208H68.7073V70.8256H69.3355V70.2457H70.1571V69.5208H70.7854V68.8925H71.462V68.0709H72.4286V67.2493H73.1535V66.3794V65.3645H73.8784H74.555V63.9146H75.2316V62.1748H75.9082V60.725H76.6332V59.6617V58.3085H77.5031V57.0036V55.4088V53.2823H76.8748V51.9291V50.6726H76.2465V49.6577V48.3528H75.2316V47.1929V45.5981H73.8784V44.6798V43.7616H72.8152V42.65V41.5385H71.462V42.1668V42.94V44.6798H70.1571V46.5647H69.3355H67.0641V42.94V41.5385H67.981V36.8547V31.6374H66.5593V30.3471V28.5241H65.2335V25.5411H63.4106V22.8895H60.9247V20.4037H59.1017V18.0835Z" fill="#0A0A23" stroke="#0A0A23" stroke-width="1.33291"/>
<path d="M59.6851 5.47656C81.4382 5.47664 99.063 23.0894 99.063 44.8037C99.0629 66.5179 81.4381 84.1308 59.6851 84.1309C37.932 84.1309 20.3072 66.5179 20.3071 44.8037C20.3071 23.0894 37.9319 5.47656 59.6851 5.47656Z" stroke="url(#paint0_linear_17_1870)" stroke-width="9.94717"/>
<g filter="url(#filter2_d_17_1870)">
<path d="M81.3579 83.4609L89.1522 77.2807L101.948 93.4184C103.099 94.8697 102.855 96.979 101.404 98.1297L98.8649 100.143C97.4137 101.294 95.3044 101.05 94.1537 99.5986L81.3579 83.4609Z" fill="url(#paint1_linear_17_1870)"/>
</g>
<defs>
<filter id="filter0_d_17_1870" x="8.89569" y="-9.91821e-05" width="101.68" height="101.68" filterUnits="userSpaceOnUse" color-interpolation-filters="sRGB">
<feFlood flood-opacity="0" result="BackgroundImageFix"/>
<feColorMatrix in="SourceAlpha" type="matrix" values="0 0 0 0 0 0 0 0 0 0 0 0 0 0 0 0 0 0 127 0" result="hardAlpha"/>
<feOffset dy="6.03634"/>
<feGaussianBlur stdDeviation="3.26968"/>
<feComposite in2="hardAlpha" operator="out"/>
<feColorMatrix type="matrix" values="0 0 0 0 0 0 0 0 0 0 0 0 0 0 0 0 0 0 0.2 0"/>
<feBlend mode="normal" in2="BackgroundImageFix" result="effect1_dropShadow_17_1870"/>
<feBlend mode="normal" in="SourceGraphic" in2="effect1_dropShadow_17_1870" result="shape"/>
</filter>
<filter id="filter1_d_17_1870" x="0.000186443" y="118.011" width="120.042" height="24.4928" filterUnits="userSpaceOnUse" color-interpolation-filters="sRGB">
<feFlood flood-opacity="0" result="BackgroundImageFix"/>
<feColorMatrix in="SourceAlpha" type="matrix" values="0 0 0 0 0 0 0 0 0 0 0 0 0 0 0 0 0 0 127 0" result="hardAlpha"/>
<feOffset dy="6.03634"/>
<feGaussianBlur stdDeviation="3.26968"/>
<feComposite in2="hardAlpha" operator="out"/>
<feColorMatrix type="matrix" values="0 0 0 0 0 0 0 0 0 0 0 0 0 0 0 0 0 0 0.2 0"/>
<feBlend mode="normal" in2="BackgroundImageFix" result="effect1_dropShadow_17_1870"/>
<feBlend mode="normal" in="SourceGraphic" in2="effect1_dropShadow_17_1870" result="shape"/>
</filter>
<filter id="filter2_d_17_1870" x="74.8185" y="76.7777" width="34.3946" height="36.6666" filterUnits="userSpaceOnUse" color-interpolation-filters="sRGB">
<feFlood flood-opacity="0" result="BackgroundImageFix"/>
<feColorMatrix in="SourceAlpha" type="matrix" values="0 0 0 0 0 0 0 0 0 0 0 0 0 0 0 0 0 0 127 0" result="hardAlpha"/>
<feOffset dy="6.03634"/>
<feGaussianBlur stdDeviation="3.26968"/>
<feComposite in2="hardAlpha" operator="out"/>
<feColorMatrix type="matrix" values="0 0 0 0 0 0 0 0 0 0 0 0 0 0 0 0 0 0 0.2 0"/>
<feBlend mode="normal" in2="BackgroundImageFix" result="effect1_dropShadow_17_1870"/>
<feBlend mode="normal" in="SourceGraphic" in2="effect1_dropShadow_17_1870" result="shape"/>
</filter>
<linearGradient id="paint0_linear_17_1870" x1="104.036" y1="44.8035" x2="15.3335" y2="44.8035" gradientUnits="userSpaceOnUse">
<stop/>
<stop offset="0.5" stop-color="white"/>
<stop offset="0.996077"/>
</linearGradient>
<linearGradient id="paint1_linear_17_1870" x1="88.7976" y1="92.8436" x2="96.5919" y2="86.6634" gradientUnits="userSpaceOnUse">
<stop stop-color="#838383"/>
<stop offset="0.258643" stop-color="#767676"/>
<stop offset="0.598242" stop-color="#696969"/>
<stop offset="1" stop-color="#565656"/>
</linearGradient>
</defs>
</svg>
