<svg fill="none" height="52" viewBox="0 0 175 52" width="175" xmlns="http://www.w3.org/2000/svg" xmlns:xlink="http://www.w3.org/1999/xlink"><filter id="a" color-interpolation-filters="sRGB" filterUnits="userSpaceOnUse" height="54.3616" width="174.222" x=".000127" y="0"><feFlood flood-opacity="0" result="BackgroundImageFix"/><feColorMatrix in="SourceAlpha" result="hardAlpha" type="matrix" values="0 0 0 0 0 0 0 0 0 0 0 0 0 0 0 0 0 0 127 0"/><feOffset dy="3.1112"/><feGaussianBlur stdDeviation="1.5556"/><feComposite in2="hardAlpha" operator="out"/><feColorMatrix type="matrix" values="0 0 0 0 0 0 0 0 0 0 0 0 0 0 0 0 0 0 0.25 0"/><feBlend in2="BackgroundImageFix" mode="normal" result="effect1_dropShadow_17_1703"/><feBlend in="SourceGraphic" in2="effect1_dropShadow_17_1703" mode="normal" result="shape"/></filter><filter id="b" color-interpolation-filters="sRGB" filterUnits="userSpaceOnUse" height="56.2493" width="168" x="3.11133" y="-1.01345"><feFlood flood-opacity="0" result="BackgroundImageFix"/><feBlend in="SourceGraphic" in2="BackgroundImageFix" mode="normal" result="shape"/><feColorMatrix in="SourceAlpha" result="hardAlpha" type="matrix" values="0 0 0 0 0 0 0 0 0 0 0 0 0 0 0 0 0 0 127 0"/><feOffset/><feGaussianBlur stdDeviation="9.26427"/><feComposite in2="hardAlpha" k2="-1" k3="1" operator="arithmetic"/><feColorMatrix type="matrix" values="0 0 0 0 0 0 0 0 0 0.303167 0 0 0 0 0.891667 0 0 0 0.5 0"/><feBlend in2="shape" mode="normal" result="effect1_innerShadow_17_1703"/><feColorMatrix in="SourceAlpha" result="hardAlpha" type="matrix" values="0 0 0 0 0 0 0 0 0 0 0 0 0 0 0 0 0 0 127 0"/><feOffset dy="11.148"/><feGaussianBlur stdDeviation="5.11795"/><feComposite in2="hardAlpha" k2="-1" k3="1" operator="arithmetic"/><feColorMatrix type="matrix" values="0 0 0 0 0.0115147 0 0 0 0 0.195035 0 0 0 0 0.545882 0 0 0 0.76 0"/><feBlend in2="effect1_innerShadow_17_1703" mode="normal" result="effect2_innerShadow_17_1703"/><feColorMatrix in="SourceAlpha" result="hardAlpha" type="matrix" values="0 0 0 0 0 0 0 0 0 0 0 0 0 0 0 0 0 0 127 0"/><feOffset dy="-1.01345"/><feGaussianBlur stdDeviation=".886773"/><feComposite in2="hardAlpha" k2="-1" k3="1" operator="arithmetic"/><feColorMatrix type="matrix" values="0 0 0 0 0.17756 0 0 0 0 0.41966 0 0 0 0 0.682813 0 0 0 0.52 0"/><feBlend in2="effect2_innerShadow_17_1703" mode="normal" result="effect3_innerShadow_17_1703"/><feColorMatrix in="SourceAlpha" result="hardAlpha" type="matrix" values="0 0 0 0 0 0 0 0 0 0 0 0 0 0 0 0 0 0 127 0"/><feOffset dy="3.04036"/><feGaussianBlur stdDeviation="3.85113"/><feComposite in2="hardAlpha" k2="-1" k3="1" operator="arithmetic"/><feColorMatrix type="matrix" values="0 0 0 0 0.838086 0 0 0 0 0.922281 0 0 0 0 1 0 0 0 0.84 0"/><feBlend in2="effect3_innerShadow_17_1703" mode="normal" result="effect4_innerShadow_17_1703"/></filter><filter id="c" color-interpolation-filters="sRGB" filterUnits="userSpaceOnUse" height="55.6237" width="29.1715" x="-5.85433" y="-1.75618"><feFlood flood-opacity="0" result="BackgroundImageFix"/><feBlend in="SourceGraphic" in2="BackgroundImageFix" mode="normal" result="shape"/><feGaussianBlur result="effect1_foregroundBlur_17_1703" stdDeviation="4.02848"/></filter><filter id="d" color-interpolation-filters="sRGB" filterUnits="userSpaceOnUse" height="55.6237" width="29.1706" x="149.366" y="-1.75618"><feFlood flood-opacity="0" result="BackgroundImageFix"/><feBlend in="SourceGraphic" in2="BackgroundImageFix" mode="normal" result="shape"/><feGaussianBlur result="effect1_foregroundBlur_17_1703" stdDeviation="4.02848"/></filter><filter id="e" color-interpolation-filters="sRGB" filterUnits="userSpaceOnUse" height="44.3319" width="177.061" x="-1.71577" y="-6.00239"><feFlood flood-opacity="0" result="BackgroundImageFix"/><feBlend in="SourceGraphic" in2="BackgroundImageFix" mode="normal" result="shape"/><feGaussianBlur result="effect1_foregroundBlur_17_1703" stdDeviation="1.49485"/></filter><filter id="f" color-interpolation-filters="sRGB" filterUnits="userSpaceOnUse" height="31.9412" width="138.932" x="17.0118" y="22.8902"><feFlood flood-opacity="0" result="BackgroundImageFix"/><feBlend in="SourceGraphic" in2="BackgroundImageFix" mode="normal" result="shape"/><feGaussianBlur result="effect1_foregroundBlur_17_1703" stdDeviation="5.04194"/></filter><linearGradient id="g" gradientUnits="userSpaceOnUse" x1="87.1113" x2="87.1113" y1="0" y2="45"><stop offset="0" stop-color="#005fa4" stop-opacity=".7"/><stop offset="1" stop-color="#daebff" stop-opacity=".57"/></linearGradient><linearGradient id="h" gradientUnits="userSpaceOnUse" x1="87.1113" x2="87.1113" y1="0" y2="30.478"><stop offset="0"/><stop offset="1" stop-color="#040404" stop-opacity=".3"/></linearGradient><linearGradient id="i" gradientUnits="userSpaceOnUse" x1="86.9798" x2="86.9798" y1=".479037" y2="15.8312"><stop offset="0" stop-color="#fff"/><stop offset=".00741407" stop-color="#fff"/><stop offset=".00751407" stop-color="#fff" stop-opacity=".9"/><stop offset=".0291793" stop-color="#fff" stop-opacity=".9"/><stop offset=".06368" stop-color="#fff" stop-opacity=".992"/><stop offset=".109701" stop-color="#fff" stop-opacity=".9"/><stop offset=".165926" stop-color="#fff" stop-opacity=".9"/><stop offset=".23104" stop-color="#fff" stop-opacity=".9"/><stop offset=".303727" stop-color="#fff" stop-opacity=".89837"/><stop offset=".382673" stop-color="#fff" stop-opacity=".848296"/><stop offset=".46656" stop-color="#fff" stop-opacity=".784"/><stop offset=".554074" stop-color="#fff" stop-opacity=".703704"/><stop offset=".643899" stop-color="#fff" stop-opacity=".60563"/><stop offset=".73472" stop-color="#fff" stop-opacity=".488"/><stop offset=".825221" stop-color="#fff" stop-opacity=".349037"/><stop offset=".914086" stop-color="#fff" stop-opacity=".186963"/><stop offset="1" stop-color="#fff" stop-opacity="0"/></linearGradient><clipPath id="j"><rect height="45" rx="22.5" width="168" x="3.11133"/></clipPath><g filter="url(#a)"><g filter="url(#b)"><g clip-path="url(#j)"><rect fill="url(#g)" height="45" rx="22.5" width="168" x="3.11133"/><g filter="url(#c)" opacity=".5"><path d="m10.7245 36.833 1.0652 8.9774-7.22997-3.8483-2.35692-15.5154 3.94343-11.751 9.11386-8.39472-2.0952 9.91152-3.44341 9.4697z" fill="#083791" fill-opacity=".71"/></g><g filter="url(#d)" opacity=".5"><path d="m161.958 36.833-1.065 8.9774 7.23-3.8483 2.357-15.5154-3.944-11.751-9.113-8.39472 2.095 9.91152 3.443 9.4697z" fill="#083791" fill-opacity=".71"/></g><g filter="url(#e)"><path d="m147.118-3.0127c13.938 0 25.237 11.29936 25.237 25.2373 0 4.8028-1.343 9.2916-3.672 13.1133.731-2.3616 1.125-4.8718 1.125-7.4736 0-13.9378-11.298-25.23633-25.236-25.23637h-115.5149c-13.9378 0-25.23705 11.29857-25.23728 25.23637 0 2.6025.39446 5.1134 1.12598 7.4755-2.32956-3.822-3.6718-8.3117-3.67187-13.1152 0-13.93785 11.29847-25.23714 25.23637-25.2373z" fill="#0b004d"/></g><g filter="url(#f)"><path d="m28.6738 42.8199c1.142 1.2293 2.7442 1.9277 4.422 1.9277h106.7622c1.783 0 3.475-.7889 4.621-2.1548 3.197-3.8099.488-9.6188-4.485-9.6188h-107.0282c-5.1161 0-7.7742 6.0978-4.292 9.8459z" fill="#bdf4ff"/></g><path d="m63.1817 26.6577c0 .6609-.1557 1.3141-.4671 1.9597-.3038.6457-.733 1.1926-1.2875 1.6407-.6076.4861-1.3178.8659-2.1306 1.1394-.8051.2734-1.7774.4101-2.9167.4101-1.2229 0-2.3243-.1139-3.3041-.3418-.9723-.2279-1.9635-.5659-2.9738-1.014v-2.8256h.1595c.8584.714 1.8496 1.2647 2.9738 1.6521 1.1241.3873 2.1799.581 3.1674.581 1.3976 0 2.4838-.262 3.2585-.7861.7824-.5241 1.1736-1.2229 1.1736-2.0964 0-.752-.1861-1.3065-.5583-1.6635-.3646-.357-.9229-.6342-1.6749-.8317-.5697-.1519-1.1887-.2773-1.8571-.376-.6608-.0988-1.3635-.2241-2.1078-.376-1.504-.319-2.6205-.8621-3.3497-1.6293-.7216-.7747-1.0824-1.7812-1.0824-3.0193 0-1.4204.6-2.5825 1.8002-3.4864 1.2001-.9115 2.723-1.3672 4.5688-1.3672 1.1925 0 2.2863.1139 3.2813.3418.9951.2278 1.8762.5089 2.6433.8431v2.6661h-.1595c-.6456-.5469-1.4963-.9988-2.5521-1.3558-1.0482-.3646-2.123-.5469-3.2244-.5469-1.2077 0-2.18.2506-2.9168.7519-.7292.5014-1.0938 1.147-1.0938 1.9369 0 .7064.1823 1.2609.5469 1.6635s1.0065.7102 1.9255.9229c.4862.1063 1.1774.2354 2.0737.3874.8963.1519 1.6558.3076 2.2787.4671 1.2609.3342 2.2103.8393 2.8484 1.5153.638.6761.957 1.6217.957 2.837zm13.1719-1.2988h-9.3769c0 .7823.1177 1.4659.3532 2.0508.2355.5773.5583 1.052.9685 1.4242.3949.3646.8621.638 1.4014.8203.5469.1823 1.1469.2735 1.8001.2735.866 0 1.7357-.1709 2.6092-.5127.8811-.3494 1.5077-.6912 1.8799-1.0254h.1139v2.3356c-.7215.3039-1.4583.5583-2.2103.7634s-1.5419.3076-2.3699.3076c-2.1116 0-3.7598-.5696-4.9448-1.709-1.1849-1.147-1.7774-2.7724-1.7774-4.8764 0-2.0813.5659-3.7333 1.6977-4.9562 1.1393-1.223 2.6357-1.8344 4.489-1.8344 1.7167 0 3.0383.5013 3.965 1.5039.9343 1.0027 1.4014 2.4269 1.4014 4.2726zm-2.085-1.6407c-.0076-1.1242-.2925-1.9939-.8545-2.6091-.5545-.6153-1.4014-.9229-2.5408-.9229-1.1469 0-2.0622.338-2.7458 1.014-.6761.676-1.0596 1.5154-1.1508 2.518zm14.2884 7.7818h-2.1306v-1.3558c-.1899.1291-.4481.3114-.7747.5469-.3191.2278-.6305.4101-.9343.5468-.357.1747-.7672.3191-1.2305.433-.4634.1215-1.0064.1823-1.6293.1823-1.1469 0-2.1192-.3798-2.9167-1.1394-.7976-.7595-1.1964-1.728-1.1964-2.9053 0-.9647.2051-1.7432.6153-2.3357.4177-.6001 1.0102-1.071 1.7774-1.4128.7747-.3418 1.7052-.5735 2.7914-.695s2.2521-.2127 3.4978-.2734v-.3305c0-.4861-.0873-.8887-.262-1.2077-.1671-.319-.4102-.5697-.7292-.752-.3038-.1747-.6684-.2924-1.0938-.3532-.4254-.0607-.8697-.0911-1.333-.0911-.5621 0-1.1888.076-1.88.2279-.6912.1443-1.4052.357-2.142.638h-.1139v-2.1762c.4178-.1139 1.0216-.2392 1.8116-.3759.7899-.1368 1.5685-.2051 2.3356-.2051.8963 0 1.6749.0759 2.3357.2278.6684.1444 1.2457.395 1.7318.752.4786.3494.8432.8014 1.0938 1.3558.2507.5545.376 1.2419.376 2.0623zm-2.1306-3.1332v-3.5434c-.6532.038-1.4242.0949-2.3129.1709-.8811.0759-1.5799.1861-2.0964.3304-.6152.1747-1.1128.4481-1.4925.8203-.3798.3646-.5697.8697-.5697 1.5154 0 .7292.2203 1.2798.6608 1.652.4406.3646 1.1128.5469 2.0167.5469.7519 0 1.4394-.1443 2.0622-.4329.6228-.2963 1.2001-.6495 1.7318-1.0596zm13.263-7.2577h-.1139c-.319-.076-.6304-.1292-.9343-.1595-.2962-.038-.6494-.057-1.0596-.057-.6608 0-1.2988.1481-1.9141.4443-.6152.2887-1.2077.6647-1.7774 1.128v9.0351h-2.142v-12.7266h2.142v1.8799c.8507-.6836 1.5989-1.1659 2.2445-1.447.6533-.2886 1.3179-.4329 1.9939-.4329.3722 0 .6419.0114.809.0342.1671.0152.4177.0493.7519.1025zm10.4946 9.5934c-.714.3418-1.394.6076-2.04.7975-.638.1899-1.317.2848-2.039.2848-.919 0-1.762-.1329-2.529-.3987-.768-.2735-1.425-.6836-1.972-1.2305-.554-.5469-.983-1.2381-1.287-2.0737-.304-.8355-.4557-1.8115-.4557-2.9281 0-2.0812.5697-3.7143 1.7087-4.8992 1.147-1.185 2.659-1.7774 4.535-1.7774.729 0 1.443.1025 2.142.3076.706.2051 1.352.4557 1.937.752v2.3812h-.114c-.653-.5089-1.329-.9001-2.028-1.1735-.691-.2735-1.367-.4102-2.028-.4102-1.216 0-2.176.4102-2.883 1.2305-.699.8128-1.048 2.0091-1.048 3.589 0 1.5343.342 2.7155 1.025 3.5434.692.8203 1.66 1.2305 2.906 1.2305.433 0 .873-.057 1.321-.1709.449-.114.851-.2621 1.208-.4444.312-.1595.604-.3266.877-.5013.274-.1823.49-.338.65-.4671h.114zm12.465.7975h-2.142v-7.2463c0-.5849-.034-1.1318-.102-1.6407-.069-.5165-.194-.9191-.376-1.2077-.19-.319-.464-.5545-.821-.7064-.357-.1595-.82-.2393-1.39-.2393-.584 0-1.196.1444-1.834.433s-1.249.657-1.834 1.1052v9.5022h-2.142v-17.7284h2.142v6.4146c.668-.5545 1.359-.9874 2.073-1.2989.714-.3114 1.447-.4671 2.199-.4671 1.375 0 2.423.414 3.145 1.2419.721.8279 1.082 2.0204 1.082 3.5776z" fill="#000"/></g><rect height="43.4444" rx="21.7222" stroke="url(#h)" stroke-width="1.5556" width="166.444" x="3.88913" y=".7778"/></g><path d="m10.4358 11.5269c1.2276-5.19833 5.868-8.87065 11.2094-8.87065h130.6688c5.342 0 9.982 3.67231 11.21 8.87065.519 2.1976-1.148 4.3043-3.407 4.3043h-146.275c-2.258 0-3.92512-2.1067-3.4062-4.3043z" fill="url(#i)" fill-opacity=".78"/></g></svg>